<svg width="48" height="45" viewBox="0 0 48 45" fill="none" xmlns="http://www.w3.org/2000/svg">
<path d="M38 13.5937H37.5V9.37494C37.4948 8.50622 37.1244 7.67447 36.469 7.06018C35.8138 6.44589 34.9266 6.09861 34 6.09369C33.8414 6.0666 33.6786 6.0666 33.52 6.09369L9.72001 13.5937H9.50001H9.18001L8.84001 13.7062H8.56001L8.24001 13.8749L8.00001 14.1937L7.72001 14.4187L7.50001 14.6062L7.26001 14.8874C7.19601 14.9413 7.14195 15.0046 7.10001 15.0749C7.02577 15.1834 6.95897 15.2961 6.90001 15.4124L6.78001 15.6187C6.72433 15.7534 6.67757 15.8911 6.64001 16.0312C6.64901 16.0997 6.64901 16.169 6.64001 16.2374C6.61935 16.4495 6.61935 16.6629 6.64001 16.8749V35.625C6.64421 36.4716 6.99531 37.2842 7.62069 37.8949C8.24607 38.5058 9.09791 38.8678 10 38.9063H38C38.9266 38.9012 39.8138 38.5539 40.469 37.9397C41.1244 37.3254 41.4948 36.4937 41.5 35.625V16.8749C41.4948 16.0062 41.1244 15.1745 40.469 14.5602C39.8138 13.9459 38.9266 13.5986 38 13.5937ZM34.16 8.92494C34.2586 8.95901 34.3438 9.02021 34.4044 9.10054C34.465 9.18086 34.4984 9.27653 34.5 9.37494V13.5937H19.24L34.16 8.92494ZM38.5 35.625C38.5 35.7493 38.4474 35.8686 38.3536 35.9563C38.2598 36.0443 38.1326 36.0938 38 36.0938H10C9.86741 36.0938 9.74023 36.0443 9.64645 35.9563C9.55269 35.8686 9.50001 35.7493 9.50001 35.625V16.8749C9.50001 16.7506 9.55269 16.6314 9.64645 16.5435C9.74023 16.4556 9.86741 16.4062 10 16.4062H38C38.1326 16.4062 38.2598 16.4556 38.3536 16.5435C38.4474 16.6314 38.5 16.7506 38.5 16.8749V35.625Z" fill="#007A7A"/>
<path d="M33 28.5938C34.3808 28.5938 35.5 27.5445 35.5 26.25C35.5 24.9555 34.3808 23.9062 33 23.9062C31.6192 23.9062 30.5 24.9555 30.5 26.25C30.5 27.5445 31.6192 28.5938 33 28.5938Z" fill="#007A7A"/>
</svg>
